<?xml version="1.0" encoding="UTF-8" standalone="no"?>
<!-- Created with Inkscape (http://www.inkscape.org/) -->

<svg
   version="1.1"
   id="svg2"
   width="548.09869"
   height="314.86105"
   viewBox="0 0 548.09869 314.86105"
   sodipodi:docname="kvcachenice.svg"
   inkscape:version="1.2 (dc2aedaf03, 2022-05-15)"
   xmlns:inkscape="http://www.inkscape.org/namespaces/inkscape"
   xmlns:sodipodi="http://sodipodi.sourceforge.net/DTD/sodipodi-0.dtd"
   xmlns="http://www.w3.org/2000/svg"
   xmlns:svg="http://www.w3.org/2000/svg">
  <defs
     id="defs6">
    <clipPath
       clipPathUnits="userSpaceOnUse"
       id="clipPath18">
      <path
         d="M -2.2888e-5,6.1035e-5 H 372.95998 V 239.40006 H -2.2888e-5 Z"
         clip-rule="evenodd"
         id="path16" />
    </clipPath>
    <clipPath
       clipPathUnits="userSpaceOnUse"
       id="clipPath28">
      <path
         d="M 7.629e-6,9.1553e-5 H 372.96001 V 239.40009 H 7.629e-6 Z"
         clip-rule="evenodd"
         id="path26" />
    </clipPath>
    <clipPath
       clipPathUnits="userSpaceOnUse"
       id="clipPath38">
      <path
         d="M 7.629e-6,9.1553e-5 H 372.96001 V 239.40009 H 7.629e-6 Z"
         clip-rule="evenodd"
         id="path36" />
    </clipPath>
    <clipPath
       clipPathUnits="userSpaceOnUse"
       id="clipPath48">
      <path
         d="M 5.558e-6,-1.5259e-5 H 372.96001 V 239.39998 H 5.558e-6 Z"
         clip-rule="evenodd"
         id="path46" />
    </clipPath>
    <clipPath
       clipPathUnits="userSpaceOnUse"
       id="clipPath68">
      <path
         d="M 5.558e-6,-1.5259e-5 H 372.96001 V 239.39998 H 5.558e-6 Z"
         clip-rule="evenodd"
         id="path66" />
    </clipPath>
    <clipPath
       clipPathUnits="userSpaceOnUse"
       id="clipPath80">
      <path
         d="M 5.558e-6,-1.5259e-5 H 372.96001 V 239.39998 H 5.558e-6 Z"
         clip-rule="evenodd"
         id="path78" />
    </clipPath>
    <clipPath
       clipPathUnits="userSpaceOnUse"
       id="clipPath92">
      <path
         d="M 5.558e-6,-1.5259e-5 H 372.96001 V 239.39998 H 5.558e-6 Z"
         clip-rule="evenodd"
         id="path90" />
    </clipPath>
    <clipPath
       clipPathUnits="userSpaceOnUse"
       id="clipPath106">
      <path
         d="M 5.558e-6,-1.5259e-5 H 372.96001 V 239.39998 H 5.558e-6 Z"
         clip-rule="evenodd"
         id="path104" />
    </clipPath>
    <clipPath
       clipPathUnits="userSpaceOnUse"
       id="clipPath118">
      <path
         d="M 5.558e-6,-1.5259e-5 H 372.96001 V 239.39998 H 5.558e-6 Z"
         clip-rule="evenodd"
         id="path116" />
    </clipPath>
    <clipPath
       clipPathUnits="userSpaceOnUse"
       id="clipPath152">
      <path
         d="M 5.558e-6,-1.5259e-5 H 372.96001 V 239.39998 H 5.558e-6 Z"
         clip-rule="evenodd"
         id="path150" />
    </clipPath>
    <clipPath
       clipPathUnits="userSpaceOnUse"
       id="clipPath164">
      <path
         d="M 5.558e-6,-1.5259e-5 H 372.96001 V 239.39998 H 5.558e-6 Z"
         clip-rule="evenodd"
         id="path162" />
    </clipPath>
    <clipPath
       clipPathUnits="userSpaceOnUse"
       id="clipPath176">
      <path
         d="M 5.558e-6,-1.5259e-5 H 372.96001 V 239.39998 H 5.558e-6 Z"
         clip-rule="evenodd"
         id="path174" />
    </clipPath>
    <clipPath
       clipPathUnits="userSpaceOnUse"
       id="clipPath335">
      <path
         d="M 6.087e-6,-1.5259e-5 H 408.48001 V 239.39998 H 6.087e-6 Z"
         clip-rule="evenodd"
         id="path333" />
    </clipPath>
    <clipPath
       clipPathUnits="userSpaceOnUse"
       id="clipPath351">
      <path
         d="M 6.087e-6,-1.5259e-5 H 408.48001 V 239.39998 H 6.087e-6 Z"
         clip-rule="evenodd"
         id="path349" />
    </clipPath>
    <clipPath
       clipPathUnits="userSpaceOnUse"
       id="clipPath363">
      <path
         d="M 6.087e-6,-1.5259e-5 H 408.48001 V 239.39998 H 6.087e-6 Z"
         clip-rule="evenodd"
         id="path361" />
    </clipPath>
    <clipPath
       clipPathUnits="userSpaceOnUse"
       id="clipPath375">
      <path
         d="M 6.087e-6,-1.5259e-5 H 408.48001 V 239.39998 H 6.087e-6 Z"
         clip-rule="evenodd"
         id="path373" />
    </clipPath>
    <clipPath
       clipPathUnits="userSpaceOnUse"
       id="clipPath391">
      <path
         d="M 6.087e-6,-1.5259e-5 H 408.48001 V 239.39998 H 6.087e-6 Z"
         clip-rule="evenodd"
         id="path389" />
    </clipPath>
    <clipPath
       clipPathUnits="userSpaceOnUse"
       id="clipPath403">
      <path
         d="M 6.087e-6,-1.5259e-5 H 408.48001 V 239.39998 H 6.087e-6 Z"
         clip-rule="evenodd"
         id="path401" />
    </clipPath>
    <clipPath
       clipPathUnits="userSpaceOnUse"
       id="clipPath415">
      <path
         d="M 6.087e-6,-1.5259e-5 H 408.48001 V 239.39998 H 6.087e-6 Z"
         clip-rule="evenodd"
         id="path413" />
    </clipPath>
    <clipPath
       clipPathUnits="userSpaceOnUse"
       id="clipPath427">
      <path
         d="M 3.815e-6,3.0518e-5 H 408.48 V 239.40003 H 3.815e-6 Z"
         clip-rule="evenodd"
         id="path425" />
    </clipPath>
    <clipPath
       clipPathUnits="userSpaceOnUse"
       id="clipPath437">
      <path
         d="M 6.087e-6,-1.5259e-5 H 408.48001 V 239.39998 H 6.087e-6 Z"
         clip-rule="evenodd"
         id="path435" />
    </clipPath>
    <clipPath
       clipPathUnits="userSpaceOnUse"
       id="clipPath449">
      <path
         d="M 6.087e-6,-1.5259e-5 H 408.48001 V 239.39998 H 6.087e-6 Z"
         clip-rule="evenodd"
         id="path447" />
    </clipPath>
  </defs>
  <sodipodi:namedview
     id="namedview4"
     pagecolor="#ffffff"
     bordercolor="#666666"
     borderopacity="1.0"
     inkscape:showpageshadow="2"
     inkscape:pageopacity="0.0"
     inkscape:pagecheckerboard="0"
     inkscape:deskcolor="#d1d1d1"
     showgrid="false"
     inkscape:zoom="5.7866794"
     inkscape:cx="276.84271"
     inkscape:cy="157.60334"
     inkscape:window-width="3840"
     inkscape:window-height="2054"
     inkscape:window-x="7669"
     inkscape:window-y="-11"
     inkscape:window-maximized="1"
     inkscape:current-layer="g10">
    <inkscape:page
       x="0"
       y="0"
       id="page8"
       width="548.09869"
       height="314.86105" />
  </sodipodi:namedview>
  <g
     id="g10"
     inkscape:groupmode="layer"
     inkscape:label="Page 1"
     transform="matrix(1.3333333,0,0,-1.3333333,54.343372,-19.73016)">
    <path
       d="m 120.23841,-172.9154 h 10.8 c 0.75,0 1.35,0.604 1.35,1.35 v 69.3 c 0,0.75 -0.6,1.35 -1.35,1.35 h -10.8 c -0.75,0 -1.35,-0.6 -1.35,-1.35 v -69.3 c 0,-0.746 0.6,-1.35 1.35,-1.35 z"
       style="fill:#70ad47;fill-opacity:1;fill-rule:evenodd;stroke:none"
       id="path54" />
    <path
       d="m 120.23841,-172.9154 h 10.8 c 0.75,0 1.35,0.604 1.35,1.35 v 69.3 c 0,0.75 -0.6,1.35 -1.35,1.35 h -10.8 c -0.75,0 -1.35,-0.6 -1.35,-1.35 v -69.3 c 0,-0.746 0.6,-1.35 1.35,-1.35 z"
       style="fill:none;stroke:#c8c8c8;stroke-width:0.25;stroke-linecap:square;stroke-linejoin:miter;stroke-miterlimit:10;stroke-dasharray:none;stroke-opacity:1"
       id="path56" />
    <path
       d="m 149.48841,-172.9154 h 10.8 c 0.75,0 1.35,0.604 1.35,1.35 v 69.3 c 0,0.75 -0.6,1.35 -1.35,1.35 h -10.8 c -0.75,0 -1.35,-0.6 -1.35,-1.35 v -69.3 c 0,-0.746 0.6,-1.35 1.35,-1.35 z"
       style="fill:#70ad47;fill-opacity:1;fill-rule:evenodd;stroke:none"
       id="path126" />
    <path
       d="m 149.48841,-172.9154 h 10.8 c 0.75,0 1.35,0.604 1.35,1.35 v 69.3 c 0,0.75 -0.6,1.35 -1.35,1.35 h -10.8 c -0.75,0 -1.35,-0.6 -1.35,-1.35 v -69.3 c 0,-0.746 0.6,-1.35 1.35,-1.35 z"
       style="fill:none;stroke:#c8c8c8;stroke-width:0.25;stroke-linecap:square;stroke-linejoin:miter;stroke-miterlimit:10;stroke-dasharray:none;stroke-opacity:1"
       id="path128" />
    <path
       d="m 178.73841,-172.9154 h 10.8 c 0.75,0 1.35,0.604 1.35,1.35 v 69.3 c 0,0.75 -0.6,1.35 -1.35,1.35 h -10.8 c -0.75,0 -1.35,-0.6 -1.35,-1.35 v -69.3 c 0,-0.746 0.6,-1.35 1.35,-1.35 z"
       style="fill:#70ad47;fill-opacity:1;fill-rule:evenodd;stroke:none"
       id="path130" />
    <path
       d="m 178.73841,-172.9154 h 10.8 c 0.75,0 1.35,0.604 1.35,1.35 v 69.3 c 0,0.75 -0.6,1.35 -1.35,1.35 h -10.8 c -0.75,0 -1.35,-0.6 -1.35,-1.35 v -69.3 c 0,-0.746 0.6,-1.35 1.35,-1.35 z"
       style="fill:none;stroke:#c8c8c8;stroke-width:0.25;stroke-linecap:square;stroke-linejoin:miter;stroke-miterlimit:10;stroke-dasharray:none;stroke-opacity:1"
       id="path132" />
    <path
       d="m 207.98841,-172.9154 h 10.8 c 0.75,0 1.35,0.604 1.35,1.35 v 69.3 c 0,0.75 -0.6,1.35 -1.35,1.35 h -10.8 c -0.75,0 -1.35,-0.6 -1.35,-1.35 v -69.3 c 0,-0.746 0.6,-1.35 1.35,-1.35 z"
       style="fill:#70ad47;fill-opacity:1;fill-rule:evenodd;stroke:none"
       id="path134" />
    <path
       d="m 207.98841,-172.9154 h 10.8 c 0.75,0 1.35,0.604 1.35,1.35 v 69.3 c 0,0.75 -0.6,1.35 -1.35,1.35 h -10.8 c -0.75,0 -1.35,-0.6 -1.35,-1.35 v -69.3 c 0,-0.746 0.6,-1.35 1.35,-1.35 z"
       style="fill:none;stroke:#c8c8c8;stroke-width:0.25;stroke-linecap:square;stroke-linejoin:miter;stroke-miterlimit:10;stroke-dasharray:none;stroke-opacity:1"
       id="path136" />
    <path
       d="m 237.23841,-172.9154 h 10.8 c 0.75,0 1.35,0.604 1.35,1.35 v 69.3 c 0,0.75 -0.6,1.35 -1.35,1.35 h -10.8 c -0.75,0 -1.35,-0.6 -1.35,-1.35 v -69.3 c 0,-0.746 0.6,-1.35 1.35,-1.35 z"
       style="fill:#70ad47;fill-opacity:1;fill-rule:evenodd;stroke:none"
       id="path138" />
    <path
       d="m 237.23841,-172.9154 h 10.8 c 0.75,0 1.35,0.604 1.35,1.35 v 69.3 c 0,0.75 -0.6,1.35 -1.35,1.35 h -10.8 c -0.75,0 -1.35,-0.6 -1.35,-1.35 v -69.3 c 0,-0.746 0.6,-1.35 1.35,-1.35 z"
       style="fill:none;stroke:#c8c8c8;stroke-width:0.25;stroke-linecap:square;stroke-linejoin:miter;stroke-miterlimit:10;stroke-dasharray:none;stroke-opacity:1"
       id="path140" />
    <path
       d="m 266.48841,-172.9154 h 10.8 c 0.75,0 1.35,0.604 1.35,1.35 v 69.3 c 0,0.75 -0.6,1.35 -1.35,1.35 h -10.8 c -0.75,0 -1.35,-0.6 -1.35,-1.35 v -69.3 c 0,-0.746 0.6,-1.35 1.35,-1.35 z"
       style="fill:#70ad47;fill-opacity:1;fill-rule:evenodd;stroke:none"
       id="path142" />
    <path
       d="m 266.48841,-172.9154 h 10.8 c 0.75,0 1.35,0.604 1.35,1.35 v 69.3 c 0,0.75 -0.6,1.35 -1.35,1.35 h -10.8 c -0.75,0 -1.35,-0.6 -1.35,-1.35 v -69.3 c 0,-0.746 0.6,-1.35 1.35,-1.35 z"
       style="fill:none;stroke:#c8c8c8;stroke-width:0.25;stroke-linecap:square;stroke-linejoin:miter;stroke-miterlimit:10;stroke-dasharray:none;stroke-opacity:1"
       id="path144" />
    <g
       id="g148"
       clip-path="url(#clipPath152)"
       transform="translate(-1.6115861,-257.8154)">
      <text
         xml:space="preserve"
         transform="scale(1,-1)"
         style="font-variant:normal;font-weight:bold;font-size:18px;font-family:Calibri;-inkscape-font-specification:Calibri-Bold;writing-mode:lr-tb;fill:#000000;fill-opacity:1;fill-rule:nonzero;stroke:none"
         id="text156"
         x="293.51837"
         y="-137.03999"><tspan
           sodipodi:role="line"
           id="tspan154"
           x="293.51837"
           y="-137.03999">KV-cache</tspan></text>
    </g>
    <g
       id="g160"
       clip-path="url(#clipPath164)"
       transform="translate(-1.6115861,-257.8154)">
      <text
         xml:space="preserve"
         transform="matrix(1,0,0,-1,283.25,115.44)"
         style="font-variant:normal;font-weight:bold;font-size:18.024px;font-family:Calibri;-inkscape-font-specification:Calibri-Bold;writing-mode:lr-tb;fill:#000000;fill-opacity:1;fill-rule:nonzero;stroke:none"
         id="text168"><tspan
           x="0 6.2543278 12.652848 21.484608 31.163496 38.355072 44.050655 53.11673 59.515247 63.588673 73.213486 82.279556 88.678078"
           y="0"
           sodipodi:role="line"
           id="tspan166">transfer per </tspan></text>
    </g>
    <g
       id="g172"
       clip-path="url(#clipPath176)"
       transform="translate(-1.6115861,-257.8154)">
      <text
         xml:space="preserve"
         transform="matrix(1,0,0,-1,308.95,93.816)"
         style="font-variant:normal;font-weight:bold;font-size:18px;font-family:Calibri;-inkscape-font-specification:Calibri-Bold;writing-mode:lr-tb;fill:#000000;fill-opacity:1;fill-rule:nonzero;stroke:none"
         id="text180"><tspan
           x="0 4.428 13.32 21.851999 30.834"
           y="0"
           sodipodi:role="line"
           id="tspan178">layer</tspan></text>
    </g>
    <path
       d="M 57.291515,-87.797651 H 180.74952 c 8.93,0 16.18,7.24 16.18,16.18 v 39.64 c 0,8.94 -7.25,16.18 -16.18,16.18 H 57.291515 c -8.937,0 -16.182,-7.24 -16.182,-16.18 v -39.64 c 0,-8.94 7.245,-16.18 16.182,-16.18 z"
       style="fill:#4672c4;fill-opacity:1;fill-rule:evenodd;stroke:none"
       id="path325"
       sodipodi:nodetypes="sssssssss" />
    <g
       id="g331"
       clip-path="url(#clipPath335)"
       transform="translate(-35.004095,-243.12068)">
      <text
         xml:space="preserve"
         transform="matrix(1,0,0,-1,117.07,196.97)"
         style="font-variant:normal;font-weight:normal;font-size:18px;font-family:Calibri;-inkscape-font-specification:Calibri;text-align:center;writing-mode:lr-tb;text-anchor:middle;fill:#000000;fill-opacity:1;fill-rule:nonzero;stroke:none"
         id="text339"
         x="36.685547"
         y="0"><tspan
           x="36.685547"
           y="0"
           sodipodi:role="line"
           id="tspan337">Prompt</tspan><tspan
           x="36.685547"
           y="22.5"
           sodipodi:role="line"
           id="tspan898">Iteration 1</tspan></text>
    </g>
    <path
       d="m 287.10952,-249.79765 h 72 c 4.97,0 9,4.0294 9,9 v 54 c 0,4.971 -4.03,9 -9,9 h -72 c -4.97,0 -9,-4.029 -9,-9 v -54 c 0,-4.9706 4.03,-9 9,-9 z"
       style="fill:#ed7d31;fill-opacity:1;fill-rule:evenodd;stroke:none"
       id="path381" />
    <path
       d="m 287.10952,-249.79765 h 72 c 4.97,0 9,4.0294 9,9 v 54 c 0,4.971 -4.03,9 -9,9 h -72 c -4.97,0 -9,-4.029 -9,-9 v -54 c 0,-4.9706 4.03,-9 9,-9 z"
       style="fill:none;stroke:#c8c8c8;stroke-width:0.25;stroke-linecap:square;stroke-linejoin:miter;stroke-miterlimit:10;stroke-dasharray:none;stroke-opacity:1"
       id="path383" />
    <g
       id="g387"
       clip-path="url(#clipPath391)"
       transform="translate(-38.824235,-243.47479)">
      <text
         xml:space="preserve"
         transform="matrix(1,0,0,-1,324.24,34.896)"
         style="font-variant:normal;font-weight:normal;font-size:18.024px;font-family:Calibri;-inkscape-font-specification:Calibri;text-align:center;writing-mode:lr-tb;text-anchor:middle;fill:#000000;fill-opacity:1;fill-rule:nonzero;stroke:none"
         id="text395"
         x="37.425323"
         y="0"><tspan
           sodipodi:role="line"
           id="tspan393"
           x="37.425323"
           y="0">Token</tspan><tspan
           sodipodi:role="line"
           x="37.425323"
           y="22.530001"
           id="tspan900">Iteration 1</tspan></text>
    </g>
    <g
       id="g399"
       clip-path="url(#clipPath403)"
       transform="translate(-39.390485,-254.19765)">
      <text
         xml:space="preserve"
         transform="matrix(1,0,0,-1,1.392,161.64)"
         style="font-variant:normal;font-weight:bold;font-size:18.024px;font-family:Calibri;-inkscape-font-specification:Calibri-Bold;writing-mode:lr-tb;fill:#000000;fill-opacity:1;fill-rule:nonzero;stroke:none"
         id="text407"><tspan
           x="0 9.588768 15.987288 25.738272 40.391785 50.070671 56.325001"
           y="0"
           sodipodi:role="line"
           id="tspan405">Prompt </tspan></text>
    </g>
    <g
       id="g411"
       clip-path="url(#clipPath415)"
       transform="translate(-47.474787,-254.19765)">
      <text
         xml:space="preserve"
         transform="matrix(1,0,0,-1,5.52,140.02)"
         style="font-variant:normal;font-weight:bold;font-size:18px;font-family:Calibri;-inkscape-font-specification:Calibri-Bold;writing-mode:lr-tb;fill:#000000;fill-opacity:1;fill-rule:nonzero;stroke:none"
         id="text419"><tspan
           sodipodi:role="line"
           id="tspan417"
           x="0"
           y="0">Machine</tspan></text>
    </g>
    <g
       id="g423"
       clip-path="url(#clipPath427)"
       transform="translate(-39.390485,-254.19765)">
      <path
         d="m 79,78.65 c -6.726667,0.257 -13.242,4.953666 -13.5,15.975 v 63.905 h -9 9 v 63.9 c -0.478,11.02133 6.282667,15.95533 13.5,15.97"
         style="fill:none;stroke:#000000;stroke-width:2.25;stroke-linecap:square;stroke-linejoin:miter;stroke-miterlimit:10;stroke-dasharray:none;stroke-opacity:1"
         id="path429"
         sodipodi:nodetypes="ccccccc" />
    </g>
    <g
       id="g433"
       clip-path="url(#clipPath437)"
       transform="translate(-45.517265,-254.19765)">
      <text
         xml:space="preserve"
         transform="matrix(1,0,0,-1,13.272,45.696)"
         style="font-variant:normal;font-weight:bold;font-size:18px;font-family:Calibri;-inkscape-font-specification:Calibri-Bold;writing-mode:lr-tb;fill:#000000;fill-opacity:1;fill-rule:nonzero;stroke:none"
         id="text441"><tspan
           x="0 8.9099998 18.594 27.233999 36.287998 45.953999"
           y="0"
           sodipodi:role="line"
           id="tspan439">Token </tspan></text>
    </g>
    <g
       id="g445"
       clip-path="url(#clipPath449)"
       transform="translate(-45.611265,-254.19765)">
      <text
         xml:space="preserve"
         transform="scale(1,-1)"
         style="font-variant:normal;font-weight:bold;font-size:18.024px;font-family:Calibri;-inkscape-font-specification:Calibri-Bold;writing-mode:lr-tb;fill:#000000;fill-opacity:1;fill-rule:nonzero;stroke:none"
         id="text453"
         x="3.6128249"
         y="-24.096001"><tspan
           sodipodi:role="line"
           id="tspan451"
           x="3.6128249"
           y="-24.096001">Machine</tspan></text>
    </g>
    <path
       d="m 39.609515,-249.79765 c -6.972,-0.18817 -12.996667,0.89883 -13.5,7.2 v 28.8 h -9 9 v 28.8 c 0.258,5.075 6.528,7.38767 13.5,7.2"
       style="fill:none;stroke:#000000;stroke-width:2.25;stroke-linecap:square;stroke-linejoin:miter;stroke-miterlimit:10;stroke-dasharray:none;stroke-opacity:1"
       id="path455"
       sodipodi:nodetypes="ccccccc" />
  </g>
</svg>
